<svg width="15" height="20" viewBox="0 0 15 20"  xmlns="http://www.w3.org/2000/svg">
<path id="bin1" fill-rule="evenodd" clip-rule="evenodd" d="M0.556671 4.6438V18.8194C0.556671 19.474 1.26875 20.0001 2.15015 20.0001H12.8499C13.7336 20.0001 14.4433 19.474 14.4433 18.8194V4.6438H0.556671ZM3.99412 7.5974H4.19128C4.50209 7.5974 4.75491 7.9143 4.75491 8.30577V16.3381C4.75491 16.7316 4.50441 17.0465 4.19128 17.0465H3.99412C3.68331 17.0465 3.43049 16.7295 3.43049 16.3381V8.30577C3.43049 7.9143 3.68331 7.5974 3.99412 7.5974ZM7.40142 7.5974H7.59858C7.90939 7.5974 8.16221 7.9143 8.16221 8.30577V16.3381C8.16221 16.7316 7.9117 17.0465 7.59858 17.0465H7.40142C7.09061 17.0465 6.83779 16.7295 6.83779 16.3381V8.30577C6.84011 7.9143 7.09061 7.5974 7.40142 7.5974ZM10.8087 7.5974H11.0059C11.3167 7.5974 11.5695 7.9143 11.5695 8.30577V16.3381C11.5695 16.7316 11.319 17.0465 11.0059 17.0465H10.8087C10.4979 17.0465 10.2451 16.7295 10.2451 16.3381V8.30577C10.2474 7.9143 10.4979 7.5974 10.8087 7.5974Z"/>
<path id="bin2" fill-rule="evenodd" clip-rule="evenodd" d="M5.55745 0C4.8848 0 4.34204 0.584093 4.34204 1.30282V1.91798H1.44503C0.647132 1.91798 0 2.29495 0 2.76098V3.83181H15V2.76098C15 2.29702 14.3529 1.92005 13.555 1.92005H10.6603V1.30282C10.6603 0.582021 10.1152 0 9.44487 0H5.55745ZM6.0283 0.9942H8.96938C9.22684 0.9942 9.4356 1.2179 9.4356 1.49337V1.91798H5.56208V1.49337C5.5644 1.2179 5.77084 0.9942 6.0283 0.9942Z"/>
</svg>
