<svg xmlns="http://www.w3.org/2000/svg" width="20" height="17"><path id="email1" fill-opacity=".6" d="M19.794 2c-.02.042-.052.073-.083.115l-6.824 7.893a3.81 3.81 0 0 1-5.794 0L.186 2.01C.062 2.305 0 2.62 0 2.956v9.049c0 2.333 1.856 4.235 4.155 4.235h11.69c2.29 0 4.155-1.892 4.155-4.235V2.956A2.687 2.687 0 0 0 19.794 2Z"/>
<path id="email2" fill-opacity=".6" d="M8.65 8.61c.34.4.814.62 1.34.62.525 0 1-.22 1.34-.62L18.155.718a.279.279 0 0 1 .082-.074A2.361 2.361 0 0 0 17.63.56H2.35c-.206 0-.402.032-.597.084L8.649 8.61Z"/></svg>