<svg xmlns="http://www.w3.org/2000/svg" width="20" height="15">
<path id="eye1" d="M0 7.344C1.788 4.39 4.257 2.314 7.667 1.51c2.238-.525 4.436-.294 6.547.612.156.063.236.046.346-.07.612-.622 1.229-1.234 1.846-1.851.179-.179.392-.248.64-.173.231.07.375.23.427.461.058.254-.046.456-.225.63-.83.847-1.673 1.69-2.515 2.532L3.657 14.727c-.178.18-.375.312-.634.26a.602.602 0 0 1-.49-.427c-.081-.248-.018-.461.167-.646.519-.52 1.038-1.038 1.563-1.557.052-.052.11-.093.19-.156C2.59 11.024 1.09 9.54 0 7.655v-.311ZM6.922 9.65a3.763 3.763 0 0 1 .439-4.817c1.107-1.096 3.074-1.575 4.77-.427L13.39 3.15c.006.005-.011-.012-.029-.018-2.146-.813-4.309-.865-6.472-.092C4.58 3.86 2.827 5.4 1.43 7.378c-.07.104-.052.167.011.254.525.756 1.13 1.448 1.806 2.07.64.595 1.338 1.114 2.088 1.535.542-.536 1.061-1.061 1.586-1.586Zm.935-.923 3.369-3.369c-.698-.502-2.03-.56-2.965.346-.917.894-.946 2.233-.404 3.023ZM20 7.655c-1.72 2.85-4.09 4.88-7.344 5.757-1.897.514-3.795.444-5.682-.104-.023-.005-.046-.023-.092-.046.329-.329.652-.652.975-.963.035-.029.11-.035.161-.023 3.121.652 5.856-.168 8.279-2.163.87-.716 1.609-1.552 2.255-2.475.07-.104.075-.168 0-.271a12.696 12.696 0 0 0-2.625-2.764c-.057-.046-.115-.086-.167-.132-.011-.012-.011-.023-.011-.023l.9-.9c1.343 1.05 2.491 2.29 3.351 3.796v.311Z"/>
<path id="eye2" d="M9.045 11.099c.37-.364.721-.721 1.085-1.073.034-.035.104-.046.161-.058 1.166-.155 2.025-1.015 2.175-2.169.006-.057.017-.127.052-.161.352-.364.71-.721 1.073-1.085.346.946.127 2.48-.888 3.536-1.056 1.108-2.62 1.362-3.658 1.01Z"/>
<path id="eye3" d="m6.922 9.651-1.58 1.58c-.75-.42-1.442-.94-2.088-1.534a12.604 12.604 0 0 1-1.806-2.07c-.064-.087-.08-.157-.012-.255C2.832 5.394 4.58 3.854 6.894 3.034c2.163-.767 4.326-.72 6.472.093.017.005.035.017.029.017l-1.258 1.258c-1.696-1.148-3.663-.67-4.77.426-1.125 1.114-1.616 3.098-.445 4.823Z"/>
<path id="eye4" d="M7.857 8.728c-.542-.796-.513-2.134.41-3.029.934-.9 2.26-.848 2.965-.346L7.857 8.728Z"/></svg>