<svg xmlns="http://www.w3.org/2000/svg" width="13" height="23"><path id="facebook1" fill-rule="evenodd" d="M10.21 4.492h2.364V.988a7.239 7.239 0 0 0-1.153-.113C10.729.82 10.037.82 9.345.82c-1.096 0-2.134.282-2.999.904-1.038.735-1.615 1.752-1.845 2.939-.058.509-.116 1.017-.116 1.526v2.656H.983v3.957h3.402v9.833h4.152V12.8h3.403c.173-1.3.346-2.6.52-3.956H8.536s0-1.921.058-2.769c0-1.187.692-1.526 1.615-1.583Z" clip-rule="evenodd"/><defs><linearGradient id="a" x1="-.289" x2="13.14" y1="2.388" y2="17.396" gradientUnits="userSpaceOnUse"><stop stop-color="#0D0E19"/><stop offset=".602" stop-color="#20222A"/><stop offset=".84" stop-color="#3E4151"/><stop offset="1" stop-color="#4E5266"/></linearGradient></defs></svg>