<svg xmlns="http://www.w3.org/2000/svg" width="18" height="20"><path id="frame1" d="M15.758 7.549c.016-1.132.027-2.272.006-2.533-.2-2.584-2.866-4.777-6.07-4.993C9.492.01 9.291.002 9.095 0c-1.748-.015-3.29.442-4.584 1.357-1.284.908-2.128 2.246-2.256 3.58-.024.24-.027 1.444-.026 2.615C.958 7.762 0 8.672 0 9.76v9.985C0 20.99 1.254 22 2.8 22h12.4c1.547 0 2.801-1.01 2.801-2.255V9.76c-.001-1.092-.964-2.002-2.243-2.211ZM8.901 2.323h.141c1.36.01 2.55.572 3.266 1.54.401.543.543 2.132.583 3.642H5.108c.05-1.481.187-3.105.559-3.61.716-.976 1.895-1.548 3.234-1.572Z"/></svg>