<svg xmlns="http://www.w3.org/2000/svg" width="19" height="18"><path id="google1" d="M9.68 7.37v3.391h4.67c0 .34-.403 1.696-1.73 2.6-.75.509-1.614.735-2.537.791-.634.057-1.269 0-1.903-.226-1.961-.621-3.403-2.317-3.576-4.465-.057-.508 0-1.017.116-1.526.576-2.486 2.998-4.351 5.767-3.956 1.21.17 1.903.678 2.595 1.187l2.537-2.487c-.23-.17-.692-.621-1.557-1.13C12.793.814 11.41.475 9.91.419h-.865c-.462 0-.98.113-1.442.226-1.903.452-3.46 1.47-4.671 2.939C1.778 4.997 1.144 6.636.97 8.5c-.058.79 0 1.526.173 2.317.52 2.147 1.615 3.843 3.403 5.143 1.384 1.017 2.94 1.526 4.67 1.639.981.056 1.904-.057 2.884-.283 1.73-.452 3.23-1.356 4.326-2.77 1.557-2.09 1.96-4.69 1.499-7.233-2.768.056-5.479.056-8.247.056Z"/><defs><linearGradient id="a" x1="-.508" x2="36.694" y1="9.117" y2="9.117" gradientUnits="userSpaceOnUse"><stop stop-color="#0D0E19"/><stop offset=".602" stop-color="#20222A"/><stop offset=".84" stop-color="#3E4151"/><stop offset="1" stop-color="#4E5266"/></linearGradient></defs></svg>