<svg width="36" height="36" viewBox="0 0 36 36" fill="none" xmlns="http://www.w3.org/2000/svg">
<path id="icon3" d="M32.953 10.3275C33.2081 11.0168 32.4246 12.6252 30.6027 15.1526C30.3476 15.4973 30.0197 15.9568 29.6188 16.5312C28.7807 17.6035 28.307 18.3119 28.1977 18.6566C28.0155 19.1161 28.0884 19.5565 28.4163 19.9777C28.5985 20.2075 29.0176 20.6671 29.6735 21.3564H29.7281V21.4138C31.2222 22.8307 32.2242 24.037 32.7344 25.0326L32.8437 25.2624L32.953 25.6932V26.2389L32.5704 26.6697L31.6412 26.8708L27.6511 26.9856C27.396 27.0239 27.0954 26.9856 26.7492 26.8708C26.4031 26.7559 26.1389 26.641 25.9567 26.5261L25.6287 26.2963C25.3008 26.0666 24.9364 25.7219 24.5356 25.2624C24.1347 24.8029 23.7794 24.3816 23.4697 23.9987C23.16 23.6157 22.8411 23.2998 22.5132 23.0509C22.1852 22.802 21.8937 22.7158 21.6386 22.7924C21.6022 22.7924 21.5567 22.8115 21.502 22.8498C21.4473 22.8881 21.3562 22.9743 21.2287 23.1083C21.1012 23.2424 20.9918 23.4051 20.9008 23.5966C20.8097 23.7881 20.7277 24.0657 20.6548 24.4295C20.5819 24.7933 20.5455 25.2241 20.5455 25.7219C20.5455 25.8751 20.5273 26.0187 20.4908 26.1527C20.4544 26.2868 20.4179 26.3921 20.3815 26.4687L20.3268 26.5261C20.1082 26.7559 19.8167 26.8708 19.4523 26.8708H17.7032C16.938 26.9473 16.1637 26.8708 15.3802 26.641C14.5968 26.4112 13.9135 26.1144 13.3305 25.7506C12.7475 25.3868 12.2191 25.023 11.7454 24.6593C11.2717 24.2955 10.9073 23.9795 10.6522 23.7115L10.2696 23.3094C10.1603 23.2328 10.0145 23.0796 9.83235 22.8498C9.65015 22.6201 9.27665 22.1222 8.71184 21.3564C8.14704 20.5905 7.59134 19.7671 7.04475 18.8864C6.49816 18.0056 5.86048 16.8472 5.13169 15.4111C4.40291 13.9751 3.72878 12.4912 3.10932 10.9594C3.03644 10.7679 3 10.6148 3 10.4999C3 10.385 3.01822 10.2892 3.05466 10.2127L3.10932 10.1552C3.25507 9.92545 3.54659 9.81057 3.98386 9.81057H8.3019C8.41122 9.81057 8.52054 9.83929 8.62985 9.89673L8.90315 10.0403L8.95781 10.0978C9.14 10.2127 9.26754 10.385 9.34042 10.6148C9.55905 11.1509 9.80502 11.7157 10.0783 12.3093C10.3516 12.9028 10.5611 13.3528 10.7069 13.6592L10.9255 14.1187C11.2535 14.7697 11.5541 15.3345 11.8274 15.8132C12.1007 16.2919 12.3467 16.6653 12.5653 16.9333C12.7839 17.2014 13.0026 17.412 13.2212 17.5652C13.4398 17.7184 13.622 17.795 13.7678 17.795C13.9135 17.795 14.0593 17.7758 14.2051 17.7375L14.2597 17.6514L14.451 17.278L14.6697 16.5312L14.8063 15.2101V13.1422C14.7699 12.7209 14.7152 12.3284 14.6423 11.9646C14.5694 11.6008 14.4966 11.3423 14.4237 11.1892L14.369 11.0168C14.114 10.6339 13.6585 10.385 13.0026 10.2701C12.8932 10.2701 12.9297 10.1361 13.1119 9.86801C13.2941 9.67654 13.4945 9.52336 13.7131 9.40847C14.2597 9.10212 15.4986 8.96809 17.4299 9.00638C18.268 9.00638 18.9786 9.08297 19.5616 9.23615C19.7438 9.27444 19.9078 9.34146 20.0535 9.4372C20.1993 9.53293 20.3086 9.66696 20.3815 9.83929C20.4544 10.0116 20.509 10.1839 20.5455 10.3563C20.5819 10.5286 20.6001 10.7775 20.6001 11.103V11.9934C20.5637 12.2997 20.5455 12.6827 20.5455 13.1422V14.5208C20.5455 14.6357 20.5364 14.8654 20.5181 15.2101C20.4999 15.5547 20.4908 15.8228 20.4908 16.0143C20.4908 16.2057 20.509 16.4259 20.5455 16.6749C20.5819 16.9238 20.6457 17.1344 20.7368 17.3067C20.8279 17.479 20.9463 17.6035 21.0921 17.6801C21.1649 17.7184 21.2469 17.7471 21.338 17.7662C21.4291 17.7854 21.5658 17.728 21.748 17.5939C21.9302 17.4599 22.1306 17.2684 22.3492 17.0195C22.5678 16.7706 22.8411 16.3972 23.1691 15.8994C23.497 15.4016 23.8432 14.8271 24.2076 14.1761C24.8271 13.0273 25.3919 11.7827 25.902 10.4424C25.9385 10.3658 25.984 10.2797 26.0387 10.1839C26.0933 10.0882 26.1571 10.0212 26.23 9.98289H26.2846L26.3393 9.92545L26.5579 9.86801H26.8859L31.3679 9.81057C31.7687 9.77227 32.1058 9.79142 32.3791 9.86801C32.6524 9.9446 32.8073 10.0403 32.8437 10.1552L32.953 10.3275Z" />
</svg>
