<svg xmlns="http://www.w3.org/2000/svg" width="36"  height="36" fill="none"><path id="icon2" d="M32.372 11.136a3.481 3.481 0 0 0-.957-1.587 3.811 3.811 0 0 0-1.672-.928c-2.347-.618-11.75-.618-11.75-.618a95.758 95.758 0 0 0-11.735.587 3.95 3.95 0 0 0-1.672.95 3.62 3.62 0 0 0-.972 1.595A36.353 36.353 0 0 0 3.004 18c-.015 2.301.188 4.6.61 6.866.17.599.504 1.145.968 1.586.464.441 1.041.76 1.676.929 2.378.617 11.735.617 11.735.617a95.983 95.983 0 0 0 11.75-.587 3.81 3.81 0 0 0 1.672-.928c.462-.44.79-.99.956-1.587.43-2.263.64-4.563.626-6.867a33.215 33.215 0 0 0-.625-6.894ZM15.003 22.279v-8.556l7.824 4.279-7.824 4.277Z"/></svg>